<?xml version="1.0" encoding="utf-8"?>
<!-- Generator: Adobe Illustrator 27.3.1, SVG Export Plug-In . SVG Version: 6.00 Build 0)  -->
<svg version="1.1" id="Layer_1" xmlns="http://www.w3.org/2000/svg" xmlns:xlink="http://www.w3.org/1999/xlink" x="0px" y="0px"
	 viewBox="0 0 48 48" style="enable-background:new 0 0 48 48;" xml:space="preserve">
<style type="text/css">
	.st0{fill:url(#SVGID_1_);}
	.st1{fill:#FFFFFF;}
</style>
<g>
	<g id="Background_1_">
		
			<radialGradient id="SVGID_1_" cx="-948.8824" cy="-140.0168" r="45.9945" gradientTransform="matrix(7.896707e-02 -1.5061 -1.2807 -6.709542e-02 -103.5117 -1394.9204)" gradientUnits="userSpaceOnUse">
			<stop  offset="0" style="stop-color:#FED576"/>
			<stop  offset="0.2634" style="stop-color:#F47133"/>
			<stop  offset="0.6091" style="stop-color:#BC3081"/>
			<stop  offset="1" style="stop-color:#4C63D2"/>
		</radialGradient>
		<path class="st0" d="M0,23.4v1.3C0.3,37.1,10.3,47,22.2,48h3.7C37.8,47,47.7,37,48,24.7v-1.3C47.7,10.8,37.5,0.7,25.3,0
			C12.1-0.6,0.4,9.9,0,23.4z"/>
	</g>
	<g id="Symbol">
		<g>
			<path class="st1" d="M24.1,12.1c3.8,0,4.3,0,5.8,0.1c1.4,0.1,2.1,0.3,2.7,0.5c0.7,0.3,1.1,0.6,1.6,1.1c0.5,0.5,0.8,1,1.1,1.7
				c0.2,0.5,0.4,1.3,0.5,2.7c0.1,1.5,0.1,2,0.1,5.9s0,4.3-0.1,5.9c-0.1,1.4-0.3,2.2-0.5,2.7c-0.3,0.7-0.6,1.2-1.1,1.7
				c-0.5,0.5-1,0.8-1.6,1.1c-0.5,0.2-1.3,0.4-2.7,0.5c-1.5,0.1-2,0.1-5.8,0.1s-4.3,0-5.8-0.1c-1.4-0.1-2.1-0.3-2.7-0.5
				c-0.7-0.3-1.1-0.6-1.6-1.1c-0.5-0.5-0.8-1-1.1-1.7c-0.2-0.5-0.4-1.3-0.5-2.7c-0.1-1.5-0.1-2-0.1-5.9s0-4.3,0.1-5.9
				c0.1-1.4,0.3-2.2,0.5-2.7c0.3-0.7,0.6-1.2,1.1-1.7c0.5-0.5,1-0.8,1.6-1.1c0.5-0.2,1.3-0.4,2.7-0.5C19.8,12.1,20.3,12.1,24.1,12.1
				 M24.1,9.4c-3.9,0-4.4,0-5.9,0.1c-1.5,0.1-2.6,0.3-3.5,0.7c-0.9,0.4-1.7,0.9-2.5,1.7c-0.8,0.8-1.3,1.6-1.6,2.6
				c-0.4,0.9-0.6,2-0.7,3.5c-0.1,1.5-0.1,2-0.1,6s0,4.5,0.1,6c0.1,1.5,0.3,2.6,0.7,3.5c0.4,1,0.9,1.8,1.6,2.6s1.6,1.3,2.5,1.7
				c0.9,0.4,2,0.6,3.5,0.7c1.5,0.1,2,0.1,5.9,0.1s4.4,0,5.9-0.1s2.6-0.3,3.5-0.7c0.9-0.4,1.7-0.9,2.5-1.7c0.8-0.8,1.3-1.6,1.6-2.6
				c0.4-0.9,0.6-2,0.7-3.5c0.1-1.5,0.1-2,0.1-6s0-4.5-0.1-6c-0.1-1.5-0.3-2.6-0.7-3.5c-0.4-1-0.9-1.8-1.6-2.6s-1.6-1.3-2.5-1.7
				c-0.9-0.4-2-0.6-3.5-0.7C28.5,9.4,28,9.4,24.1,9.4L24.1,9.4z"/>
			<path class="st1" d="M24.1,16.5c-4.1,0-7.4,3.3-7.4,7.5s3.3,7.5,7.4,7.5s7.4-3.3,7.4-7.5S28.2,16.5,24.1,16.5z M24.1,28.8
				c-2.6,0-4.8-2.2-4.8-4.9s2.1-4.9,4.8-4.9s4.8,2.2,4.8,4.9S26.7,28.8,24.1,28.8z"/>
			<ellipse class="st1" cx="31.8" cy="16.2" rx="1.7" ry="1.7"/>
		</g>
	</g>
</g>
</svg>
