<?xml version="1.0" encoding="utf-8" ?>
<svg baseProfile="full" height="600" version="1.1" width="800" xmlns="http://www.w3.org/2000/svg" xmlns:ev="http://www.w3.org/2001/xml-events" xmlns:xlink="http://www.w3.org/1999/xlink"><defs /><text fill="black" x="100" y="50">1</text><text fill="black" x="150" y="50">2</text><text fill="black" x="200" y="50">3</text><text fill="black" x="250" y="50">4</text><text fill="black" x="300" y="50">5</text><text fill="black" x="350" y="50">6</text><text fill="black" x="400" y="50">7</text><text fill="black" x="100" y="80">8</text><text fill="black" x="150" y="80">9</text><text fill="black" x="200" y="80">10</text><text fill="black" x="250" y="80">11</text><text fill="black" x="300" y="80">12</text><text fill="black" x="350" y="80">13</text><text fill="black" x="400" y="80">14</text><text fill="black" x="100" y="110">15</text><text fill="black" x="150" y="110">16</text><text fill="black" x="200" y="110">17</text><text fill="black" x="250" y="110">18</text><text fill="black" x="300" y="110">19</text><text fill="black" x="350" y="110">20</text><text fill="black" x="400" y="110">21</text><text fill="black" x="100" y="140">22</text><circle cx="100" cy="135" fill="none" r="10" stroke="red" stroke-width="2" /><text fill="black" x="150" y="140">23</text><text fill="black" x="200" y="140">24</text><text fill="black" x="250" y="140">25</text><text fill="black" x="300" y="140">26</text><text fill="black" x="350" y="140">27</text><text fill="black" x="400" y="140">28</text><text fill="black" x="100" y="170">29</text><text fill="black" x="150" y="170">30</text><text fill="black" x="200" y="170">31</text></svg>