<?xml version="1.0" encoding="UTF-8"?>
<svg xmlns="http://www.w3.org/2000/svg" viewBox="0 0 400 24.6">
<defs>
<style>
.cls-1{fill:#36494e;}.cls-1,.cls-2,.cls-3{stroke-width:0px;}.cls-2{fill:#e6e6e6;}.cls-3{fill:#878e99;}
</style>
</defs>
<g id="bottom">
<polygon class="cls-1" points="800.03 17.58 400.03 17.58 .03 17.58 -399.97 17.58 -399.97 23.58 .03 23.58 400.03 23.58 800.03 23.58 1200.03 23.58 1200.03 17.58 800.03 17.58">
  <animateTransform attributeType="XML"
                    attributeName="transform"
                    type="translate"
                    from="0,0" to="-400,0"
                    dur="20s"
                    repeatCount="indefinite"/>
</polygon>
</g>
<g id="mid">
<path class="cls-3" d="M1150.03,7.46c-25-.9-49.97-2.83-75-2.14-32.79.27-67.18,1.88-100,2.35-37.51.97-74.99-1.84-112.5-1.53-8.34.15-16.68,1.28-25,1.79-12.49.67-25,.66-37.5.31-16.67.03-33.33-.39-50-.79-25-.9-49.97-2.83-75-2.14-32.79.27-67.18,1.88-100,2.35-37.51.97-74.99-1.84-112.5-1.53-8.34.15-16.68,1.28-25,1.79-12.49.67-25,.66-37.5.31-16.67.03-33.33-.39-50-.79-25-.9-49.97-2.83-75-2.14-32.79.27-67.18,1.88-100,2.35-37.51.97-74.99-1.84-112.5-1.53-8.34.15-16.68,1.28-25,1.79-12.49.67-25,.66-37.5.31-16.67.03-33.33-.39-50-.79-25-.9-49.97-2.83-75-2.14-32.79.27-67.18,1.88-100,2.35-37.51.97-74.99-1.84-112.5-1.53-8.34.15-16.68,1.28-25,1.79-12.49.67-25,.66-37.5.31v1c16.68-.46,33.39-.39,50,1.35,16.63,1.49,33.33.62,50,.3,25-.95,49.99-1.52,75-1.08,32.81.48,67.22,2.09,100,2.35,25.03.69,50-1.24,75-2.14,16.67-.39,33.33-.82,50-.79,16.68-.46,33.39-.39,50,1.35,16.63,1.49,33.33.62,50,.3,25-.95,49.99-1.52,75-1.08,32.81.48,67.22,2.09,100,2.35,25.03.69,50-1.24,75-2.14,16.67-.39,33.33-.82,50-.79,16.68-.46,33.39-.39,50,1.35,16.63,1.49,33.33.62,50,.3,25-.95,49.99-1.52,75-1.08,32.81.48,67.22,2.09,100,2.35,25.03.69,50-1.24,75-2.14,16.67-.39,33.33-.82,50-.79,16.68-.46,33.39-.39,50,1.35,16.63,1.49,33.33.62,50,.3,25-.95,49.99-1.52,75-1.08,32.81.48,67.22,2.09,100,2.35,25.03.69,50-1.24,75-2.14,16.67-.39,33.33-.82,50-.79v-1c-16.67.03-33.33-.39-50-.79Z">
  <animateTransform attributeType="XML"
                    attributeName="transform"
                    type="translate"
                    from="0,0" to="-400,0"
                    dur="15s"
                    repeatCount="indefinite"/>
</path>
</g>
<g id="upper">
<path class="cls-1" d="M1000.03,12.27c-50-1.15-99.96-5.27-150-2.68-16.19.62-33.93,1.45-50,3.09h0c-66.67-3.39-133.32-.36-200-.41-50-1.15-99.96-5.27-150-2.68-16.19.62-33.93,1.45-50,3.09h0c-66.67-3.39-133.32-.36-200-.41-50-1.15-99.96-5.27-150-2.68C33.84,10.2,16.1,11.03.03,12.67H.03c-66.67-3.39-133.32-.36-200-.41-50-1.15-99.96-5.27-150-2.68-16.19.62-33.93,1.45-50,3.09v1c8.33.88,16.67,1.4,25,1.94,24.79,1.42,50.21,2,75,1.93,33.33,0,66.67-3.24,100-3.46,66.68-.05,133.33,2.98,200-.41,8.33.88,16.67,1.4,25,1.94,24.79,1.42,50.21,2,75,1.93,33.33,0,66.67-3.24,100-3.46,66.68-.05,133.33,2.98,200-.41,8.33.88,16.67,1.4,25,1.94,24.79,1.42,50.21,2,75,1.93,33.33,0,66.67-3.24,100-3.46,66.68-.05,133.33,2.98,200-.41,8.33.88,16.67,1.4,25,1.94,24.79,1.42,50.21,2,75,1.93,33.33,0,66.67-3.24,100-3.46,66.68-.05,133.33,2.98,200-.41,0,0,0-1,0-1-66.67-3.39-133.32-.36-200-.41Z">
  <animateTransform attributeType="XML"
                    attributeName="transform"
                    type="translate"
                    from="0,0" to="-400,0"
                    dur="10s"
                    repeatCount="indefinite"/>
</path>
</g>
<g id="top">
<path class="cls-2" d="M1150.03,16.29c-25-.9-49.97-2.83-75-2.14-32.79.27-67.18,1.88-100,2.35-37.51.97-74.99-1.84-112.5-1.53-8.34.15-16.68,1.28-25,1.79-12.49.67-25,.66-37.5.31-16.67.03-33.33-.39-50-.79-25-.9-49.97-2.83-75-2.14-32.79.27-67.18,1.88-100,2.35-37.51.97-74.99-1.84-112.5-1.53-8.34.15-16.68,1.28-25,1.79-12.49.67-25,.66-37.5.31-16.67.03-33.33-.39-50-.79-25-.9-49.97-2.83-75-2.14-32.79.27-67.18,1.88-100,2.35-37.51.97-74.99-1.84-112.5-1.53-8.34.15-16.68,1.28-25,1.79-12.49.67-25,.66-37.5.31-16.67.03-33.33-.39-50-.79-25-.9-49.97-2.83-75-2.14-32.79.27-67.18,1.88-100,2.35-37.51.97-74.99-1.84-112.5-1.53-8.34.15-16.68,1.28-25,1.79-12.49.67-25,.66-37.5.31,0,0,0,1,0,1,16.68-.46,33.39-.39,50,1.35,16.63,1.49,33.33.62,50,.3,25-.95,49.99-1.52,75-1.08,32.81.48,67.22,2.09,100,2.35,25.03.69,50-1.24,75-2.14,16.67-.39,33.33-.82,50-.79H.03c16.68-.46,33.39-.39,50,1.35,16.63,1.49,33.33.62,50,.3,25-.95,49.99-1.52,75-1.08,32.81.48,67.22,2.09,100,2.35,25.03.69,50-1.24,75-2.14,16.67-.39,33.33-.82,50-.79h0c16.68-.46,33.39-.39,50,1.35,16.63,1.49,33.33.62,50,.3,25-.95,49.99-1.52,75-1.08,32.81.48,67.22,2.09,100,2.35,25.03.69,50-1.24,75-2.14,16.67-.39,33.33-.82,50-.79h0c16.68-.46,33.39-.39,50,1.35,16.63,1.49,33.33.62,50,.3,25-.95,49.99-1.52,75-1.08,32.81.48,67.22,2.09,100,2.35,25.03.69,50-1.24,75-2.14,16.67-.39,33.33-.82,50-.79v-1c-16.67.03-33.33-.39-50-.79Z">
  <animateTransform attributeType="XML"
                    attributeName="transform"
                    type="translate"
                    from="0,0" to="-400,0"
                    dur="5s"
                    repeatCount="indefinite"/>
</path>
</g>
</svg>
